<?xml version="1.0" encoding="utf-8"?>
<!DOCTYPE svg PUBLIC "-//W3C//DTD SVG 1.1//EN" "http://www.w3.org/Graphics/SVG/1.1/DTD/svg11.dtd">
<svg version="1.1" id="facebook-icon" xmlns="http://www.w3.org/2000/svg" xmlns:xlink="http://www.w3.org/1999/xlink" x="0px" y="0px" width="23px" height="23px" viewBox="-276.5 425.5 23 23" enable-background="new -276.5 425.5 23 23" xml:space="preserve">
<path fill="#595959" d="M-265,425.5c-6.352,0-11.5,5.149-11.5,11.5c0,6.352,5.148,11.5,11.5,11.5c6.351,0,11.5-5.148,11.5-11.5
	C-253.5,430.649-258.65,425.5-265,425.5z M-261.958,436.953h-1.991c0,3.182,0,7.101,0,7.101h-2.951c0,0,0-3.879,0-7.101h-1.403
	v-2.508h1.403v-1.625c0-1.163,0.552-2.979,2.979-2.979l2.185,0.009v2.436c0,0-1.329,0-1.586,0c-0.259,0-0.626,0.129-0.626,0.683
	v1.477h2.25L-261.958,436.953z"/>
</svg>