<svg xmlns="http://www.w3.org/2000/svg" xmlns:xlink="http://www.w3.org/1999/xlink" enable-background="new 0 0 56.693 56.693" height="56.69" id="Layer_1" version="1.1" viewBox="0 0 56.69 56.69" width="56.69" xml:space="preserve">
	<polygon fill="#595959" points="38.51 24.39 38.51 20.45 38.51 19.86 37.92 19.86 33.98 19.87 33.99 24.41"/>
	<path fill="#595959" d="M28.23 34.87c2.6 0 4.71-2.11 4.71-4.71 0-1.02-0.33-1.97-0.89-2.75 -0.85-1.19-2.25-1.96-3.82-1.96s-2.96 0.78-3.82 1.97c-0.56 0.77-0.89 1.72-0.89 2.75C23.51 32.76 25.63 34.87 28.23 34.87z"/>
	<path fill="#595959" d="M28.35 5.16c-13.6 0-24.62 11.02-24.62 24.62 0 13.6 11.03 24.63 24.63 24.63 13.6 0 24.62-11.02 24.62-24.62C52.97 16.18 41.95 5.16 28.35 5.16zM41.61 27.41V38.37c0 2.85-2.32 5.17-5.17 5.17H20.01c-2.85 0-5.17-2.32-5.17-5.17V27.41v-5.46c0-2.85 2.32-5.17 5.17-5.17h16.43c2.85 0 5.17 2.32 5.17 5.17V27.41z"/>
	<path fill="#595959" d="M35.55 30.16c0 4.04-3.28 7.32-7.32 7.32s-7.32-3.28-7.32-7.32c0-0.97 0.19-1.9 0.54-2.75h-4V38.37c0 1.41 1.15 2.56 2.56 2.56h16.43c1.41 0 2.56-1.15 2.56-2.56V27.41h-4C35.35 28.26 35.55 29.19 35.55 30.16z"/>
</svg>
