<?xml version="1.0" encoding="utf-8"?>
<!-- Generator: Adobe Illustrator 16.2.0, SVG Export Plug-In . SVG Version: 6.00 Build 0)  -->
<!DOCTYPE svg PUBLIC "-//W3C//DTD SVG 1.1//EN" "http://www.w3.org/Graphics/SVG/1.1/DTD/svg11.dtd">
<svg version="1.1" xmlns="http://www.w3.org/2000/svg" xmlns:xlink="http://www.w3.org/1999/xlink" x="0px" y="0px"
	 width="217.385px" height="58.625px" viewBox="0 0 217.385 58.625" enable-background="new 0 0 217.385 58.625"
	 xml:space="preserve">
<g id="logo">
	<g>
		<path fill="#E84E0F" d="M63.75,46.5H51.125V27.428c0-2.529-0.416-4.42-1.246-5.674c-0.83-1.252-2.145-1.879-3.945-1.879
			c-1.754,0-3.193,0.533-4.316,1.6s-2.246,2.406-3.367,4.02V46.5H25.625V27.428c0-2.412-0.391-4.273-1.17-5.586
			c-0.779-1.311-2.16-1.967-4.143-1.967c-0.945,0-1.814,0.188-2.605,0.563s-1.434,0.795-1.93,1.264s-1.1,1.16-1.807,2.074
			c-0.709,0.914-1.158,1.486-1.346,1.719V46.5H0V10.75h12.625v5.127c1.902-2.01,3.842-3.471,5.816-4.383s4.256-1.369,6.842-1.369
			c1.221,0,2.383,0.111,3.488,0.334s2.191,0.602,3.262,1.139c1.07,0.539,2.039,1.275,2.91,2.209c0.869,0.936,1.563,2.023,2.08,3.262
			c2.033-2.291,4.143-4.021,6.33-5.189c2.186-1.168,4.705-1.754,7.559-1.754c2.852,0,5.242,0.574,7.172,1.721
			c1.93,1.148,3.355,2.805,4.279,4.969s1.387,4.791,1.387,7.881V46.5z"/>
		<path fill="#E84E0F" d="M104.184,44.68c-1.85,0.732-3.559,1.322-5.125,1.771s-3.449,0.674-5.648,0.674
			c-2.084,0-3.535-0.373-4.354-1.115c-0.818-0.744-1.402-1.648-1.754-2.713c-1.367,1.111-2.885,2.027-4.557,2.748
			c-1.672,0.719-3.861,1.08-6.568,1.08c-2.613,0-4.727-0.453-6.34-1.354c-1.613-0.902-2.742-2.041-3.391-3.412
			s-0.971-2.785-0.971-4.238c0-2.203,0.559-4.027,1.678-5.469c1.117-1.441,2.619-2.621,4.504-3.535
			c1.883-0.914,4.381-1.865,7.49-2.85c1.766-0.563,3.102-0.992,4.008-1.285s1.584-0.521,2.031-0.686s0.918-0.375,1.414-0.633
			c0-1.729-0.354-3.084-1.061-4.066c-0.707-0.98-2.238-1.473-4.594-1.473c-2.781,0-5.359,0.609-7.738,1.828
			s-4.559,2.789-6.537,4.711V14.98c1.574-1.117,3.277-2.029,5.109-2.74s3.746-1.24,5.742-1.59s4.016-0.525,6.061-0.525
			c5.189,0,9.094,0.998,11.713,2.994s3.93,4.746,3.93,8.248v13.766c0,1.309,0.123,2.283,0.369,2.924
			c0.246,0.643,0.697,0.963,1.354,0.963c0.797,0,1.875-0.34,3.234-1.02V44.68z M86.602,37.795v-8.42
			c-3.035,1.213-5.254,2.303-6.652,3.27c-1.398,0.969-2.098,2.279-2.098,3.934c0,1.189,0.35,2.1,1.049,2.729
			s1.512,0.943,2.438,0.943c0.877,0,1.748-0.238,2.613-0.719C84.817,39.053,85.7,38.475,86.602,37.795z"/>
		<path fill="#E84E0F" d="M135.258,12.688l-2.513,6.813l-4.287,4.271c-0.732-0.696,0.245-0.896-0.082-0.095
			c-1.201-0.7-2.411-1.051-3.63-1.051c-1.781,0-3.322,0.604-4.623,1.809c-1.301,1.207-2.549,3.436-3.744,6.688V46.5h-12.625V10.75
			h12.625v8.645c0.797-2.129,2.203-4.207,4.219-6.232c2.015-2.023,4.382-3.037,7.101-3.037c1.43,0,2.678,0.211,3.744,0.633
			S133.781,11.822,135.258,12.688z"/>
		<path fill="#E84E0F" d="M158.42,44.434c-1.313,0.629-3.123,1.236-5.432,1.818c-2.309,0.58-4.518,0.873-6.627,0.873
			c-9.074,0-13.609-4.451-13.609-13.355V19.5h-5.73v-2.205L143.943,0h1.434v10.75h12.094v8.75h-12.094v11.492
			c0,1.34,0.082,2.42,0.246,3.242c0.164,0.824,0.627,1.512,1.389,2.063c0.762,0.553,1.916,0.828,3.463,0.828
			c2.016,0,4.664-0.844,7.945-2.531V44.434z"/>
		<path fill="#E84E0F" d="M198.335,44.68c-1.85,0.732-3.559,1.322-5.125,1.771s-3.449,0.674-5.648,0.674
			c-2.084,0-3.535-0.373-4.354-1.115c-0.818-0.744-1.402-1.648-1.754-2.713c-1.367,1.111-2.885,2.027-4.557,2.748
			c-1.672,0.719-3.861,1.08-6.568,1.08c-2.613,0-4.727-0.453-6.34-1.354c-1.613-0.902-2.742-2.041-3.391-3.412
			s-0.971-2.785-0.971-4.238c0-2.203,0.559-4.027,1.678-5.469c1.117-1.441,2.619-2.621,4.504-3.535
			c1.883-0.914,4.381-1.865,7.49-2.85c1.766-0.563,3.102-0.992,4.008-1.285s1.584-0.521,2.031-0.686s0.918-0.375,1.414-0.633
			c0-1.729-0.354-3.084-1.061-4.066c-0.707-0.98-2.238-1.473-4.594-1.473c-2.781,0-5.359,0.609-7.738,1.828
			s-4.559,2.789-6.537,4.711V14.98c1.574-1.117,3.277-2.029,5.109-2.74s3.746-1.24,5.742-1.59s4.016-0.525,6.061-0.525
			c5.189,0,9.094,0.998,11.713,2.994s3.93,4.746,3.93,8.248v13.766c0,1.309,0.123,2.283,0.369,2.924
			c0.246,0.643,0.697,0.963,1.354,0.963c0.797,0,1.875-0.34,3.234-1.02V44.68z M180.753,37.795v-8.42
			c-3.035,1.213-5.254,2.303-6.652,3.27c-1.398,0.969-2.098,2.279-2.098,3.934c0,1.189,0.35,2.1,1.049,2.729
			s1.512,0.943,2.438,0.943c0.877,0,1.748-0.238,2.613-0.719C178.968,39.053,179.851,38.475,180.753,37.795z"/>
		<path opacity="0.55" fill="#E84E0F" d="M217.385,43.129c0,1.574-0.311,3.188-0.93,4.844c-0.619,1.654-1.576,3.209-2.873,4.666
			c-1.297,1.455-3.023,2.717-5.184,3.785c-2.16,1.066-4.666,1.801-7.514,2.201v-2.219c3.666-1.41,5.5-4.531,5.5-9.367v-0.74
			c-3.668-1.057-5.5-3.369-5.5-6.938c0-1.715,0.652-3.369,1.961-4.967c1.309-1.596,3.141-2.395,5.5-2.395
			c1.984,0,3.654,0.553,5.01,1.656s2.365,2.512,3.031,4.227C217.051,39.598,217.385,41.346,217.385,43.129z M215.949,17.652
			c0,2.125-0.736,3.922-2.207,5.393c-1.473,1.471-3.246,2.205-5.324,2.205c-2.08,0-3.844-0.734-5.291-2.205
			c-1.449-1.471-2.172-3.244-2.172-5.322c0-2.17,0.758-3.979,2.277-5.426c1.518-1.447,3.27-2.172,5.254-2.172
			c1.285,0,2.512,0.334,3.68,0.998c1.168,0.666,2.09,1.576,2.768,2.73C215.609,15.01,215.949,16.275,215.949,17.652z"/>
	</g>
</g>
<g id="Strokes">
	<path fill="#E84E0F" d="M66.938,14.813"/>
	<path opacity="0.48" fill="#E84E0F" d="M0.271,10.563l12.635,0.031v5.063c0,0,2.406-2.656,5.219-4.094
		c1.938-1.031,4.219-1.406,5.5-1.531c3.031-0.344,5.453,0.266,5.453,0.266s2.359,0.391,4.464,1.891
		c0.521,0.5,2.042,1.146,3.677,4.688c0.984-1.172,2.297-2.328,2.922-2.844c1.891-1.641,3.719-2.516,4.5-2.875
		c2.688-1.094,4.766-1.136,5.297-1.177c3.156-0.26,5.594,0.521,5.875,0.583c2.672,0.781,3.927,2.146,4.292,2.417
		c2.115,1.958,2.708,4.13,2.896,4.646c0.938,2.656,0.969,5.969,0.969,5.969v22.688l-12.641,0.016c0,0,0-18.563,0.016-19.125
		c0.094-5.109-1.891-6.391-2.156-6.609c-1.625-1.156-3.438-0.854-3.75-0.833c-1.484,0.052-2.688,0.833-2.891,0.958
		c-2.125,1.594-4.109,4.625-4.109,4.625v21H25.781c0,0-0.016-17.406-0.016-18.266c0.219-4.375-0.979-6.156-1.162-6.484
		c-1.323-1.875-3.26-1.828-3.542-1.859c-2.156-0.188-3.391,0.656-3.875,0.922c-1.5,0.875-2.906,2.891-2.906,2.891l-1.406,1.828
		v20.969H0.219L0.271,10.563z"/>
</g>
</svg>
