<?xml version="1.0" encoding="utf-8"?>
<!DOCTYPE svg PUBLIC "-//W3C//DTD SVG 1.1//EN" "http://www.w3.org/Graphics/SVG/1.1/DTD/svg11.dtd">
<svg version="1.1" id="pinterest-icon" xmlns="http://www.w3.org/2000/svg" xmlns:xlink="http://www.w3.org/1999/xlink" x="0px" y="0px" width="23px" height="23px" viewBox="0 0 23 23" enable-background="new 0 0 23 23" xml:space="preserve">
<g>
	<path fill="#595959" d="M11.5,0C5.149,0,0,5.148,0,11.5c0,4.708,2.832,8.754,6.883,10.533c-0.032-0.804-0.006-1.767,0.2-2.641
		c0.221-0.934,1.479-6.267,1.479-6.267s-0.368-0.734-0.368-1.819c0-1.704,0.988-2.977,2.218-2.977c1.046,0,1.552,0.785,1.552,1.726
		c0,1.051-0.671,2.624-1.016,4.081c-0.288,1.221,0.612,2.216,1.815,2.216c2.179,0,3.646-2.799,3.646-6.114
		c0-2.521-1.697-4.407-4.785-4.407c-3.489,0-5.662,2.601-5.662,5.507c0,1.002,0.295,1.708,0.758,2.256
		c0.212,0.25,0.242,0.352,0.165,0.64c-0.055,0.211-0.182,0.722-0.234,0.924c-0.077,0.292-0.313,0.396-0.576,0.288
		c-1.606-0.656-2.355-2.416-2.355-4.394c0-3.266,2.755-7.184,8.219-7.184c4.39,0,7.28,3.178,7.28,6.588
		c0,4.51-2.507,7.881-6.204,7.881c-1.242,0-2.41-0.671-2.81-1.433c0,0-0.668,2.65-0.809,3.161c-0.244,0.887-0.721,1.773-1.158,2.463
		C9.276,22.833,10.368,23,11.5,23C17.851,23,23,17.852,23,11.5C22.999,5.148,17.85,0,11.5,0z"/>
</g>
</svg>